<svg xmlns="http://www.w3.org/2000/svg" width="390" height="844" viewBox="0 0 390 844"><rect width="390" height="844" rx="32" fill="#101827"/><text x="24" y="25" font-family="Manrope, Arial, sans-serif" font-size="10" font-weight="500" fill="#AEB8C8" text-anchor="start" letter-spacing="0">21:48</text><g transform="translate(335.5 14.5) scale(0.5416666666666666)" fill="none" stroke="#AEB8C8" stroke-width="1.8" stroke-linecap="round" stroke-linejoin="round"><path d="M2 20h.01"/><path d="M7 20v-4"/><path d="M12 20v-8"/><path d="M17 20V8"/><path d="M22 4v16"/></g><g transform="translate(353.5 13.5) scale(0.625)" fill="none" stroke="#AEB8C8" stroke-width="1.8" stroke-linecap="round" stroke-linejoin="round"><path d="M10 10v4"/><path d="M14 10v4"/><path d="M22 14v-4"/><path d="M6 10v4"/><rect x="2" y="6" width="16" height="12" rx="2"/></g><g transform="translate(18 50) scale(0.9166666666666666)" fill="none" stroke="#AEB8C8" stroke-width="1.8" stroke-linecap="round" stroke-linejoin="round"><path d="m15 18-6-6 6-6"/></g><text x="47" y="66" font-family="Manrope, Arial, sans-serif" font-size="14" font-weight="500" fill="#AEB8C8" text-anchor="start" letter-spacing="0">Voltar</text><text x="24" y="120" font-family="Manrope, Arial, sans-serif" font-size="33" font-weight="400" fill="#EEF1F7" text-anchor="start" letter-spacing="0">Como foi</text><text x="24" y="162" font-family="Manrope, Arial, sans-serif" font-size="33" font-weight="400" fill="#EEF1F7" text-anchor="start" letter-spacing="0">a sua noite?</text><text x="24" y="215" font-family="Manrope, Arial, sans-serif" font-size="14" font-weight="400" fill="#AEB8C8" text-anchor="start" letter-spacing="0">Não existe resposta certa. Só a sua percepção.</text><text x="24" y="254" font-family="Manrope, Arial, sans-serif" font-size="13" font-weight="600" fill="#EEF1F7" text-anchor="start" letter-spacing="0">Noite encerrada em</text><rect x="24" y="270" width="342" height="55" rx="17" fill="#1B2A41" stroke="none"/><text x="44" y="305" font-family="Manrope, Arial, sans-serif" font-size="14" font-weight="500" fill="#EEF1F7" text-anchor="start" letter-spacing="0">22 de setembro de 2026</text><g transform="translate(319 288) scale(0.75)" fill="none" stroke="#AEB8C8" stroke-width="1.65" stroke-linecap="round" stroke-linejoin="round"><path d="M8 2v4"/><path d="M16 2v4"/><rect width="18" height="18" x="3" y="4" rx="2"/><path d="M3 10h18"/><path d="M8 14h.01"/><path d="M12 14h.01"/><path d="M16 14h.01"/><path d="M8 18h.01"/><path d="M12 18h.01"/><path d="M16 18h.01"/></g><g transform="translate(340 289) scale(0.6666666666666666)" fill="none" stroke="#AEB8C8" stroke-width="1.65" stroke-linecap="round" stroke-linejoin="round"><path d="m6 9 6 6 6-6"/></g><text x="24" y="366" font-family="Manrope, Arial, sans-serif" font-size="13" font-weight="600" fill="#EEF1F7" text-anchor="start" letter-spacing="0">Quanto tempo você dormiu?</text><rect x="24" y="382" width="342" height="88" rx="24" fill="#1B2A41" stroke="none"/><circle cx="67" cy="426" r="22" fill="#101827" stroke="#101827" stroke-width="1"/><g transform="translate(58 417) scale(0.75)" fill="none" stroke="#EEF1F7" stroke-width="2" stroke-linecap="round" stroke-linejoin="round"><path d="M5 12h14"/></g><text x="195" y="436" font-family="Manrope, Arial, sans-serif" font-size="29" font-weight="400" fill="#EEF1F7" text-anchor="middle" letter-spacing="0">7 h 00 min</text><circle cx="323" cy="426" r="22" fill="#101827" stroke="#101827" stroke-width="1"/><g transform="translate(314 417) scale(0.75)" fill="none" stroke="#EEF1F7" stroke-width="2" stroke-linecap="round" stroke-linejoin="round"><path d="M5 12h14"/><path d="M12 5v14"/></g><text x="24" y="514" font-family="Manrope, Arial, sans-serif" font-size="13" font-weight="600" fill="#EEF1F7" text-anchor="start" letter-spacing="0">Como você avalia seu descanso?</text><rect x="24" y="531" width="54" height="54" rx="16" fill="#1B2A41" stroke="none"/><g transform="translate(37.5 544.5) scale(1.125)" fill="#A9A4C9" stroke="#A9A4C9" stroke-width="1.45" stroke-linecap="round" stroke-linejoin="round"><path d="M11.525 2.295a.53.53 0 0 1 .95 0l2.31 4.679a2.123 2.123 0 0 0 1.595 1.16l5.166.756a.53.53 0 0 1 .294.904l-3.736 3.638a2.123 2.123 0 0 0-.611 1.878l.882 5.14a.53.53 0 0 1-.771.56l-4.618-2.428a2.122 2.122 0 0 0-1.973 0L6.396 21.01a.53.53 0 0 1-.77-.56l.881-5.139a2.122 2.122 0 0 0-.611-1.879L2.16 9.795a.53.53 0 0 1 .294-.906l5.165-.755a2.122 2.122 0 0 0 1.597-1.16z"/></g><rect x="92" y="531" width="54" height="54" rx="16" fill="#1B2A41" stroke="none"/><g transform="translate(105.5 544.5) scale(1.125)" fill="#A9A4C9" stroke="#A9A4C9" stroke-width="1.45" stroke-linecap="round" stroke-linejoin="round"><path d="M11.525 2.295a.53.53 0 0 1 .95 0l2.31 4.679a2.123 2.123 0 0 0 1.595 1.16l5.166.756a.53.53 0 0 1 .294.904l-3.736 3.638a2.123 2.123 0 0 0-.611 1.878l.882 5.14a.53.53 0 0 1-.771.56l-4.618-2.428a2.122 2.122 0 0 0-1.973 0L6.396 21.01a.53.53 0 0 1-.77-.56l.881-5.139a2.122 2.122 0 0 0-.611-1.879L2.16 9.795a.53.53 0 0 1 .294-.906l5.165-.755a2.122 2.122 0 0 0 1.597-1.16z"/></g><rect x="160" y="531" width="54" height="54" rx="16" fill="#1B2A41" stroke="none"/><g transform="translate(173.5 544.5) scale(1.125)" fill="#A9A4C9" stroke="#A9A4C9" stroke-width="1.45" stroke-linecap="round" stroke-linejoin="round"><path d="M11.525 2.295a.53.53 0 0 1 .95 0l2.31 4.679a2.123 2.123 0 0 0 1.595 1.16l5.166.756a.53.53 0 0 1 .294.904l-3.736 3.638a2.123 2.123 0 0 0-.611 1.878l.882 5.14a.53.53 0 0 1-.771.56l-4.618-2.428a2.122 2.122 0 0 0-1.973 0L6.396 21.01a.53.53 0 0 1-.77-.56l.881-5.139a2.122 2.122 0 0 0-.611-1.879L2.16 9.795a.53.53 0 0 1 .294-.906l5.165-.755a2.122 2.122 0 0 0 1.597-1.16z"/></g><rect x="228" y="531" width="54" height="54" rx="16" fill="#1B2A41" stroke="none"/><g transform="translate(241.5 544.5) scale(1.125)" fill="#A9A4C9" stroke="#A9A4C9" stroke-width="1.45" stroke-linecap="round" stroke-linejoin="round"><path d="M11.525 2.295a.53.53 0 0 1 .95 0l2.31 4.679a2.123 2.123 0 0 0 1.595 1.16l5.166.756a.53.53 0 0 1 .294.904l-3.736 3.638a2.123 2.123 0 0 0-.611 1.878l.882 5.14a.53.53 0 0 1-.771.56l-4.618-2.428a2.122 2.122 0 0 0-1.973 0L6.396 21.01a.53.53 0 0 1-.77-.56l.881-5.139a2.122 2.122 0 0 0-.611-1.879L2.16 9.795a.53.53 0 0 1 .294-.906l5.165-.755a2.122 2.122 0 0 0 1.597-1.16z"/></g><rect x="296" y="531" width="54" height="54" rx="16" fill="#1B2A41" stroke="none"/><g transform="translate(309.5 544.5) scale(1.125)" fill="none" stroke="#AEB8C8" stroke-width="1.45" stroke-linecap="round" stroke-linejoin="round"><path d="M11.525 2.295a.53.53 0 0 1 .95 0l2.31 4.679a2.123 2.123 0 0 0 1.595 1.16l5.166.756a.53.53 0 0 1 .294.904l-3.736 3.638a2.123 2.123 0 0 0-.611 1.878l.882 5.14a.53.53 0 0 1-.771.56l-4.618-2.428a2.122 2.122 0 0 0-1.973 0L6.396 21.01a.53.53 0 0 1-.77-.56l.881-5.139a2.122 2.122 0 0 0-.611-1.879L2.16 9.795a.53.53 0 0 1 .294-.906l5.165-.755a2.122 2.122 0 0 0 1.597-1.16z"/></g><text x="195" y="612" font-family="Manrope, Arial, sans-serif" font-size="12" font-weight="500" fill="#AEB8C8" text-anchor="middle" letter-spacing="0">Bom</text><rect x="24" y="672" width="342" height="56" rx="20" fill="#7C8DB5" stroke="none"/><text x="195" y="707" font-family="Manrope, Arial, sans-serif" font-size="15" font-weight="700" fill="#101827" text-anchor="middle" letter-spacing="0">Salvar minha noite</text><g transform="translate(85 749) scale(0.5833333333333334)" fill="none" stroke="#AEB8C8" stroke-width="1.65" stroke-linecap="round" stroke-linejoin="round"><circle cx="12" cy="16" r="1"/><rect x="3" y="10" width="18" height="12" rx="2"/><path d="M7 10V7a5 5 0 0 1 10 0v3"/></g><text x="209" y="760" font-family="Manrope, Arial, sans-serif" font-size="10" font-weight="400" fill="#AEB8C8" text-anchor="middle" letter-spacing="0">Seus registros ficam neste dispositivo.</text></svg>